<?xml version="1.0" standalone="no"?>
<!DOCTYPE svg PUBLIC "-//W3C//DTD SVG 20010904//EN"
 "http://www.w3.org/TR/2001/REC-SVG-20010904/DTD/svg10.dtd">
<svg version="1.0" xmlns="http://www.w3.org/2000/svg"
 width="1221.000000pt" height="1280.000000pt" viewBox="0 0 1221.000000 1280.000000"
 preserveAspectRatio="xMidYMid meet">
<metadata>
Created by potrace 1.15, written by Peter Selinger 2001-2017
</metadata>
<g transform="translate(0.000000,1280.000000) scale(0.100000,-0.100000)"
fill="#000000" stroke="none">
<path d="M7645 12794 c-16 -3 -79 -11 -140 -20 -433 -60 -1083 -271 -1900
-616 -175 -74 -218 -112 -217 -187 1 -53 22 -90 78 -140 64 -56 135 -81 234
-81 l79 0 21 -67 c42 -135 47 -251 19 -385 l-10 -47 -135 -70 c-362 -190 -658
-420 -741 -578 -37 -68 -40 -105 -18 -180 33 -110 104 -177 229 -215 39 -11
75 -23 80 -26 4 -2 -14 -16 -40 -31 -200 -109 -323 -260 -332 -407 -5 -75 18
-124 77 -166 188 -134 746 -97 1298 87 l137 46 49 -16 c61 -20 112 -52 153
-96 39 -42 70 -96 61 -105 -5 -6 -74 -12 -270 -24 -27 -1 124 -229 215 -325
154 -162 334 -254 569 -290 l36 -5 26 -99 c15 -54 29 -105 32 -113 4 -9 -19
-28 -70 -57 -393 -223 -729 -539 -988 -928 -76 -115 -84 -123 -114 -123 -45 0
-82 -19 -89 -46 -6 -22 -7 -23 -35 -9 -53 28 -89 11 -89 -42 0 -17 -7 -18
-112 -8 l-112 10 -36 105 c-19 58 -39 111 -43 118 -17 25 -46 12 -73 -33 -31
-54 -51 -57 -126 -19 -44 23 -60 25 -107 20 -63 -8 -128 -34 -154 -64 -10 -11
-24 -40 -31 -64 l-13 -43 -123 -7 c-127 -7 -324 -34 -350 -48 -8 -5 -82 -59
-165 -120 -155 -117 -420 -296 -537 -364 -66 -39 -68 -41 -99 -120 -155 -390
-315 -742 -388 -854 l-41 -63 46 -20 c123 -52 187 -47 249 22 42 47 69 105 95
204 20 77 21 76 42 -44 l15 -84 -63 -78 c-293 -363 -357 -840 -185 -1366 l36
-113 -38 -77 c-44 -87 -57 -167 -37 -227 6 -20 50 -89 98 -154 170 -233 212
-291 251 -356 l41 -66 -68 -53 c-71 -57 -157 -116 -233 -159 l-45 -27 -155 45
c-167 48 -714 185 -819 205 -36 7 -72 20 -80 29 -8 9 -51 31 -95 49 -44 18
-197 80 -340 138 -557 226 -754 277 -872 224 -23 -11 -50 -32 -60 -48 -10 -15
-45 -55 -78 -88 -71 -71 -107 -138 -136 -254 -18 -72 -21 -106 -17 -226 l4
-141 -100 -66 c-125 -82 -293 -225 -366 -309 -30 -35 -47 -58 -38 -51 22 17
35 -3 16 -26 -7 -9 27 25 76 76 49 51 123 120 164 153 107 87 253 182 261 172
8 -9 31 -84 31 -101 0 -6 -21 -24 -47 -39 -93 -54 -279 -203 -373 -298 -52
-53 -90 -95 -85 -94 32 5 38 -1 19 -23 -10 -12 31 28 91 89 106 106 258 228
357 286 26 15 49 27 52 27 7 0 69 -121 64 -124 -2 -2 -32 -22 -68 -46 -166
-111 -325 -248 -413 -354 -22 -28 -30 -41 -16 -28 27 24 47 19 27 -7 -7 -9 31
26 82 78 52 52 124 118 160 146 81 66 210 155 224 155 5 0 -8 -19 -29 -42 -22
-23 -33 -36 -23 -30 22 17 35 -3 16 -26 -7 -10 10 7 37 37 l51 54 22 -28 c12
-15 22 -31 22 -36 0 -4 -17 -18 -37 -30 -152 -93 -341 -256 -439 -379 -26 -33
-26 -34 -3 -12 27 24 47 19 27 -7 -7 -9 44 38 112 105 123 118 175 163 235
199 l30 19 -30 -35 c-17 -19 -39 -45 -50 -59 l-20 -25 26 23 c14 12 29 19 32
15 4 -3 -40 -54 -97 -113 -86 -88 -110 -120 -140 -185 -20 -43 -35 -80 -33
-82 2 -2 17 15 32 37 41 59 41 49 1 -23 -26 -45 -32 -64 -22 -64 8 0 38 45 68
100 53 100 145 217 145 184 0 -9 -5 -13 -10 -10 -6 4 -7 1 -2 -7 6 -9 4 -11
-5 -5 -9 6 -11 4 -5 -4 5 -9 41 20 114 91 58 57 124 118 147 135 l40 32 64
-32 c57 -28 74 -32 150 -32 70 0 93 4 130 24 68 36 166 128 338 316 85 94 174
188 198 211 23 22 46 53 49 67 4 15 10 27 14 27 4 0 115 -38 247 -84 798 -279
1481 -480 2058 -605 155 -34 206 -58 260 -124 91 -108 240 -322 321 -460 l39
-67 67 0 c193 0 423 89 630 245 195 146 564 504 803 778 109 126 273 329 313
387 94 139 138 270 131 397 -4 69 -10 93 -42 158 -31 62 -56 94 -138 173 -55
53 -140 142 -189 196 l-89 100 0 70 c0 174 -40 470 -87 637 -17 63 -25 115
-24 157 2 61 1 65 -34 98 -34 32 -102 160 -91 172 3 2 54 17 113 33 242 63
362 138 416 258 16 37 19 59 14 134 -5 88 -5 88 22 98 95 37 361 99 421 99 21
0 30 -7 40 -30 30 -73 199 -190 275 -190 20 0 64 12 98 26 63 27 99 28 208 8
65 -11 81 33 83 221 l1 99 58 12 c31 6 57 7 57 3 0 -5 -18 -71 -39 -148 -67
-237 -116 -505 -141 -776 -6 -66 -13 -136 -16 -155 -2 -19 -9 -431 -13 -915
-7 -713 -12 -904 -25 -1005 -21 -160 -51 -314 -83 -413 -13 -44 -23 -80 -21
-82 2 -2 39 5 82 15 44 11 81 18 83 16 2 -2 -1 -66 -7 -143 -6 -76 -10 -145
-8 -153 2 -11 -16 -16 -82 -22 -243 -23 -430 -83 -430 -140 0 -11 21 -88 47
-171 45 -141 49 -151 85 -174 33 -22 39 -33 54 -96 10 -44 19 -131 21 -222 4
-124 1 -167 -15 -248 -40 -190 -57 -202 -267 -194 -145 6 -222 18 -503 79
-182 39 -197 41 -259 31 -153 -27 -299 -145 -387 -313 -47 -91 -66 -161 -66
-250 0 -62 5 -86 26 -129 33 -66 71 -91 204 -136 456 -155 961 -181 1478 -74
96 19 199 45 227 55 13 5 15 -6 15 -70 0 -183 90 -294 280 -345 366 -99 914
-72 1695 82 95 19 141 23 225 20 89 -4 113 -2 161 16 120 45 191 145 191 268
0 60 -7 86 -65 228 -108 268 -203 572 -247 790 -16 80 -19 110 -10 113 6 2 22
14 36 26 23 20 25 30 35 184 8 129 8 166 -2 178 -31 38 -131 71 -282 95 l-79
12 6 71 c42 478 101 830 206 1241 96 374 192 668 445 1349 317 858 379 1092
379 1441 1 193 -11 274 -60 417 -13 39 -23 73 -21 74 1 2 25 4 54 5 45 2 59
-3 124 -43 41 -26 173 -126 294 -223 310 -250 410 -315 520 -337 47 -9 59 -8
97 10 80 39 125 144 116 271 -6 86 -39 151 -111 219 -80 75 -199 129 -502 227
-281 91 -387 136 -447 191 -22 19 -50 40 -64 46 -34 16 -25 41 71 203 74 124
98 195 98 290 1 93 -18 148 -88 261 -159 256 -430 302 -617 106 -65 -68 -93
-119 -117 -213 l-17 -69 -141 178 c-398 502 -798 911 -1159 1183 -233 175
-471 310 -689 390 -49 18 -92 34 -93 35 -2 1 28 47 67 101 172 240 272 486
315 776 9 57 16 135 16 173 l1 69 55 33 c77 47 109 98 107 171 l-2 56 77 43
c121 67 259 170 348 258 139 139 187 274 139 391 -24 59 -119 145 -208 187
-123 59 -330 110 -538 131 l-66 7 -6 54 c-14 140 -163 313 -448 525 -161 119
-169 126 -169 162 0 18 16 65 35 106 67 139 49 153 -210 157 -93 1 -183 0
-200 -2z m-2 -5214 c87 -176 236 -431 327 -558 l60 -83 -52 -22 c-28 -11 -76
-33 -107 -47 l-55 -26 -57 58 c-69 71 -88 73 -148 17 -51 -49 -87 -65 -185
-84 -133 -25 -186 -72 -204 -177 -7 -41 -9 -42 -67 -60 -210 -64 -627 -151
-725 -152 -35 0 -91 12 -155 33 -136 45 -164 41 -279 -34 -89 -58 -303 -171
-382 -201 -41 -16 -43 -16 -130 19 -113 46 -238 81 -336 97 l-77 13 18 36 c10
20 31 74 46 119 32 99 30 133 -16 206 -76 121 -99 161 -99 176 0 19 51 100 62
100 5 0 8 -8 8 -18 0 -48 33 -123 74 -168 39 -44 47 -48 87 -48 24 0 72 6 106
14 l62 14 62 -39 c47 -29 66 -36 78 -28 17 11 44 77 66 158 15 58 1 55 165 30
206 -31 491 -5 564 52 13 10 83 67 157 126 146 118 411 298 584 398 124 71
449 239 462 239 4 0 43 -72 86 -160z m3237 74 c56 -51 103 -151 108 -230 4
-54 -2 -80 -42 -196 -25 -74 -46 -141 -46 -150 0 -10 -12 -19 -28 -23 -43 -9
-91 -55 -106 -100 l-14 -39 -21 34 c-28 46 -27 87 4 132 14 20 25 40 25 43 0
4 -39 61 -86 128 l-86 121 17 64 c41 151 119 252 195 252 32 0 48 -7 80 -36z
m398 -868 c26 -13 139 -61 252 -106 384 -154 501 -236 476 -335 -4 -14 -18
-31 -31 -37 -58 -26 -161 29 -448 244 -110 83 -224 166 -253 184 -35 23 -54
41 -54 54 0 25 1 25 58 -4z m-441 -41 c10 -8 27 -22 38 -30 19 -16 19 -16 -5
-9 -27 7 -60 32 -60 46 0 12 7 10 27 -7z m-6137 -209 c38 -25 80 -94 80 -132
0 -18 -11 -21 -102 -32 -57 -6 -154 -24 -216 -40 l-113 -28 -6 24 c-15 61 25
146 91 190 84 57 196 64 266 18z m471 -527 c111 -22 222 -57 315 -99 53 -24
65 -33 61 -47 -3 -10 -14 -45 -23 -78 -10 -33 -19 -61 -20 -63 -1 -2 -28 11
-59 29 -70 39 -130 44 -172 13 -15 -11 -49 -24 -75 -27 -160 -22 -332 -132
-573 -368 -77 -76 -131 -120 -150 -125 -185 -44 -437 -212 -591 -393 -37 -44
-72 -77 -77 -72 -28 28 -36 328 -12 464 31 176 106 337 206 440 33 33 59 63
59 67 0 4 21 24 46 43 l46 36 22 -32 c18 -26 29 -33 62 -35 68 -5 115 49 139
161 4 20 16 33 38 42 45 18 181 52 243 61 l52 6 17 -58 c23 -81 90 -147 166
-164 59 -13 112 -1 105 22 -3 7 -7 56 -10 109 l-6 97 47 -5 c27 -3 91 -13 144
-24z m848 -756 c-14 -38 14 -74 74 -93 52 -17 51 -16 63 -156 11 -144 4 -140
-145 73 l-132 188 48 6 c102 13 104 12 92 -18z m2981 -2434 c85 -5 169 -12
186 -15 l31 -6 7 -96 c10 -140 43 -390 69 -519 l23 -113 -31 -5 c-16 -2 -64
-9 -105 -16 -170 -25 -296 -68 -340 -114 l-22 -24 56 -157 c32 -87 62 -165 69
-173 7 -8 30 -22 53 -32 l40 -18 18 -113 c10 -62 20 -167 23 -233 l6 -121
-104 4 c-57 2 -105 5 -107 7 -8 8 -42 203 -51 299 -6 60 -11 216 -11 345 l0
236 31 26 31 25 13 155 c10 126 10 158 -1 175 -19 32 -91 63 -203 87 l-100 22
-7 45 c-8 49 9 252 26 311 l10 36 118 -3 c64 -3 187 -9 272 -15z m-7825 -126
c0 -11 -146 -123 -161 -123 -4 0 25 32 64 71 64 64 97 81 97 52z"/>
<path d="M409 2603 c-13 -16 -12 -17 4 -4 9 7 17 15 17 17 0 8 -8 3 -21 -13z"/>
<path d="M694 2228 c-4 -7 -14 -23 -21 -35 -8 -12 -10 -24 -5 -27 5 -3 16 12
25 34 15 39 16 52 1 28z"/>
</g>
</svg>
